<svg xmlns="http://www.w3.org/2000/svg" viewBox="0 0 32 32" shape-rendering="crispEdges" role="img" aria-label="SimGob">
  <!-- teal chrome frame -->
  <rect width="32" height="32" fill="#194c4c"/>
  <!-- beveled amber tile -->
  <rect x="3" y="3" width="26" height="26" fill="#e09a2d"/>
  <rect x="3" y="3" width="26" height="2" fill="#f0cd7a"/>
  <rect x="3" y="3" width="2" height="26" fill="#f0cd7a"/>
  <rect x="3" y="27" width="26" height="2" fill="#b3791d"/>
  <rect x="27" y="3" width="2" height="26" fill="#b3791d"/>
  <!-- SG monogram -->
  <g fill="#211f18">
    <rect x="7" y="9" width="2" height="2"/>
    <rect x="9" y="9" width="2" height="2"/>
    <rect x="11" y="9" width="2" height="2"/>
    <rect x="13" y="9" width="2" height="2"/>
    <rect x="5" y="11" width="2" height="2"/>
    <rect x="5" y="13" width="2" height="2"/>
    <rect x="7" y="15" width="2" height="2"/>
    <rect x="9" y="15" width="2" height="2"/>
    <rect x="11" y="15" width="2" height="2"/>
    <rect x="13" y="17" width="2" height="2"/>
    <rect x="13" y="19" width="2" height="2"/>
    <rect x="5" y="21" width="2" height="2"/>
    <rect x="7" y="21" width="2" height="2"/>
    <rect x="9" y="21" width="2" height="2"/>
    <rect x="11" y="21" width="2" height="2"/>
    <rect x="19" y="9" width="2" height="2"/>
    <rect x="21" y="9" width="2" height="2"/>
    <rect x="23" y="9" width="2" height="2"/>
    <rect x="17" y="11" width="2" height="2"/>
    <rect x="25" y="11" width="2" height="2"/>
    <rect x="17" y="13" width="2" height="2"/>
    <rect x="17" y="15" width="2" height="2"/>
    <rect x="21" y="15" width="2" height="2"/>
    <rect x="23" y="15" width="2" height="2"/>
    <rect x="25" y="15" width="2" height="2"/>
    <rect x="17" y="17" width="2" height="2"/>
    <rect x="25" y="17" width="2" height="2"/>
    <rect x="17" y="19" width="2" height="2"/>
    <rect x="25" y="19" width="2" height="2"/>
    <rect x="19" y="21" width="2" height="2"/>
    <rect x="21" y="21" width="2" height="2"/>
    <rect x="23" y="21" width="2" height="2"/>
  </g>
</svg>
